<mxfile host="app.diagrams.net" modified="2022-10-16T14:00:06.304Z" agent="5.0 (Windows NT 10.0; Win64; x64) AppleWebKit/537.36 (KHTML, like Gecko) Chrome/106.0.0.0 Safari/537.36 Edg/106.0.1370.42" etag="NgK4mnltV8-_09VURIlw" version="20.4.1" type="github">
  <diagram id="rx4cs3UstuWfeNW1Yqym" name="第 1 页">
    <mxGraphModel dx="974" dy="475" grid="1" gridSize="10" guides="1" tooltips="1" connect="1" arrows="1" fold="1" page="1" pageScale="1" pageWidth="827" pageHeight="1169" math="0" shadow="0">
      <root>
        <mxCell id="0" />
        <mxCell id="1" parent="0" />
        <mxCell id="fgOzfoC5r0u5ENq1_FYO-1" value="1" style="rounded=0;whiteSpace=wrap;html=1;" vertex="1" parent="1">
          <mxGeometry x="120" y="40" width="70" height="60" as="geometry" />
        </mxCell>
        <mxCell id="fgOzfoC5r0u5ENq1_FYO-2" value="1" style="rounded=0;whiteSpace=wrap;html=1;" vertex="1" parent="1">
          <mxGeometry x="190" y="40" width="70" height="60" as="geometry" />
        </mxCell>
        <mxCell id="fgOzfoC5r0u5ENq1_FYO-3" value="1" style="rounded=0;whiteSpace=wrap;html=1;" vertex="1" parent="1">
          <mxGeometry x="260" y="40" width="70" height="60" as="geometry" />
        </mxCell>
        <mxCell id="fgOzfoC5r0u5ENq1_FYO-4" value="2" style="rounded=0;whiteSpace=wrap;html=1;" vertex="1" parent="1">
          <mxGeometry x="330" y="40" width="70" height="60" as="geometry" />
        </mxCell>
        <mxCell id="fgOzfoC5r0u5ENq1_FYO-6" value="1" style="rounded=0;whiteSpace=wrap;html=1;" vertex="1" parent="1">
          <mxGeometry x="400" y="40" width="70" height="60" as="geometry" />
        </mxCell>
        <mxCell id="fgOzfoC5r0u5ENq1_FYO-7" value="1" style="rounded=0;whiteSpace=wrap;html=1;fillColor=#00FFFF;" vertex="1" parent="1">
          <mxGeometry x="120" y="160" width="70" height="60" as="geometry" />
        </mxCell>
        <mxCell id="fgOzfoC5r0u5ENq1_FYO-8" value="1" style="rounded=0;whiteSpace=wrap;html=1;" vertex="1" parent="1">
          <mxGeometry x="190" y="160" width="70" height="60" as="geometry" />
        </mxCell>
        <mxCell id="fgOzfoC5r0u5ENq1_FYO-9" value="1" style="rounded=0;whiteSpace=wrap;html=1;" vertex="1" parent="1">
          <mxGeometry x="260" y="160" width="70" height="60" as="geometry" />
        </mxCell>
        <mxCell id="fgOzfoC5r0u5ENq1_FYO-10" value="2" style="rounded=0;whiteSpace=wrap;html=1;" vertex="1" parent="1">
          <mxGeometry x="330" y="160" width="70" height="60" as="geometry" />
        </mxCell>
        <mxCell id="fgOzfoC5r0u5ENq1_FYO-11" value="1" style="rounded=0;whiteSpace=wrap;html=1;" vertex="1" parent="1">
          <mxGeometry x="400" y="160" width="70" height="60" as="geometry" />
        </mxCell>
        <mxCell id="fgOzfoC5r0u5ENq1_FYO-13" value="" style="shape=crossbar;whiteSpace=wrap;html=1;rounded=1;" vertex="1" parent="1">
          <mxGeometry x="130" y="250" width="50" height="20" as="geometry" />
        </mxCell>
        <mxCell id="fgOzfoC5r0u5ENq1_FYO-14" value="1" style="rounded=0;whiteSpace=wrap;html=1;fillColor=#33FF33;" vertex="1" parent="1">
          <mxGeometry x="120" y="290" width="70" height="60" as="geometry" />
        </mxCell>
        <mxCell id="fgOzfoC5r0u5ENq1_FYO-15" value="1" style="rounded=0;whiteSpace=wrap;html=1;" vertex="1" parent="1">
          <mxGeometry x="120" y="420" width="70" height="60" as="geometry" />
        </mxCell>
        <mxCell id="fgOzfoC5r0u5ENq1_FYO-16" value="1" style="rounded=0;whiteSpace=wrap;html=1;fillColor=#00FFFF;" vertex="1" parent="1">
          <mxGeometry x="190" y="420" width="70" height="60" as="geometry" />
        </mxCell>
        <mxCell id="fgOzfoC5r0u5ENq1_FYO-17" value="1" style="rounded=0;whiteSpace=wrap;html=1;" vertex="1" parent="1">
          <mxGeometry x="260" y="420" width="70" height="60" as="geometry" />
        </mxCell>
        <mxCell id="fgOzfoC5r0u5ENq1_FYO-18" value="2" style="rounded=0;whiteSpace=wrap;html=1;" vertex="1" parent="1">
          <mxGeometry x="330" y="420" width="70" height="60" as="geometry" />
        </mxCell>
        <mxCell id="fgOzfoC5r0u5ENq1_FYO-19" value="1" style="rounded=0;whiteSpace=wrap;html=1;" vertex="1" parent="1">
          <mxGeometry x="400" y="420" width="70" height="60" as="geometry" />
        </mxCell>
        <mxCell id="fgOzfoC5r0u5ENq1_FYO-20" value="" style="shape=crossbar;whiteSpace=wrap;html=1;rounded=1;" vertex="1" parent="1">
          <mxGeometry x="130" y="510" width="120" height="20" as="geometry" />
        </mxCell>
        <mxCell id="fgOzfoC5r0u5ENq1_FYO-21" value="1" style="rounded=0;whiteSpace=wrap;html=1;fillColor=#33FF33;" vertex="1" parent="1">
          <mxGeometry x="120" y="550" width="70" height="60" as="geometry" />
        </mxCell>
        <mxCell id="fgOzfoC5r0u5ENq1_FYO-22" value="1" style="rounded=0;whiteSpace=wrap;html=1;fillColor=#33FF33;" vertex="1" parent="1">
          <mxGeometry x="190" y="550" width="70" height="60" as="geometry" />
        </mxCell>
        <mxCell id="fgOzfoC5r0u5ENq1_FYO-23" value="1" style="rounded=0;whiteSpace=wrap;html=1;fillColor=#33FF33;" vertex="1" parent="1">
          <mxGeometry x="190" y="640" width="70" height="60" as="geometry" />
        </mxCell>
        <mxCell id="fgOzfoC5r0u5ENq1_FYO-24" value="1" style="rounded=0;whiteSpace=wrap;html=1;" vertex="1" parent="1">
          <mxGeometry x="120" y="760" width="70" height="60" as="geometry" />
        </mxCell>
        <mxCell id="fgOzfoC5r0u5ENq1_FYO-25" value="1" style="rounded=0;whiteSpace=wrap;html=1;" vertex="1" parent="1">
          <mxGeometry x="190" y="760" width="70" height="60" as="geometry" />
        </mxCell>
        <mxCell id="fgOzfoC5r0u5ENq1_FYO-26" value="1" style="rounded=0;whiteSpace=wrap;html=1;fillColor=#00FFFF;" vertex="1" parent="1">
          <mxGeometry x="260" y="760" width="70" height="60" as="geometry" />
        </mxCell>
        <mxCell id="fgOzfoC5r0u5ENq1_FYO-27" value="2" style="rounded=0;whiteSpace=wrap;html=1;" vertex="1" parent="1">
          <mxGeometry x="330" y="760" width="70" height="60" as="geometry" />
        </mxCell>
        <mxCell id="fgOzfoC5r0u5ENq1_FYO-28" value="1" style="rounded=0;whiteSpace=wrap;html=1;" vertex="1" parent="1">
          <mxGeometry x="400" y="760" width="70" height="60" as="geometry" />
        </mxCell>
        <mxCell id="fgOzfoC5r0u5ENq1_FYO-29" value="" style="shape=crossbar;whiteSpace=wrap;html=1;rounded=1;" vertex="1" parent="1">
          <mxGeometry x="130" y="850" width="190" height="20" as="geometry" />
        </mxCell>
        <mxCell id="fgOzfoC5r0u5ENq1_FYO-30" value="1" style="rounded=0;whiteSpace=wrap;html=1;fillColor=#33FF33;" vertex="1" parent="1">
          <mxGeometry x="120" y="890" width="70" height="60" as="geometry" />
        </mxCell>
        <mxCell id="fgOzfoC5r0u5ENq1_FYO-31" value="1" style="rounded=0;whiteSpace=wrap;html=1;fillColor=#33FF33;" vertex="1" parent="1">
          <mxGeometry x="190" y="890" width="70" height="60" as="geometry" />
        </mxCell>
        <mxCell id="fgOzfoC5r0u5ENq1_FYO-32" value="1" style="rounded=0;whiteSpace=wrap;html=1;fillColor=#33FF33;" vertex="1" parent="1">
          <mxGeometry x="190" y="980" width="70" height="60" as="geometry" />
        </mxCell>
        <mxCell id="fgOzfoC5r0u5ENq1_FYO-33" value="1" style="rounded=0;whiteSpace=wrap;html=1;fillColor=#33FF33;" vertex="1" parent="1">
          <mxGeometry x="260" y="890" width="70" height="60" as="geometry" />
        </mxCell>
        <mxCell id="fgOzfoC5r0u5ENq1_FYO-34" value="1" style="rounded=0;whiteSpace=wrap;html=1;fillColor=#33FF33;" vertex="1" parent="1">
          <mxGeometry x="260" y="980" width="70" height="60" as="geometry" />
        </mxCell>
        <mxCell id="fgOzfoC5r0u5ENq1_FYO-35" value="1" style="rounded=0;whiteSpace=wrap;html=1;fillColor=#33FF33;" vertex="1" parent="1">
          <mxGeometry x="260" y="1080" width="70" height="60" as="geometry" />
        </mxCell>
        <mxCell id="fgOzfoC5r0u5ENq1_FYO-36" value="1" style="rounded=0;whiteSpace=wrap;html=1;" vertex="1" parent="1">
          <mxGeometry x="120" y="1200" width="70" height="60" as="geometry" />
        </mxCell>
        <mxCell id="fgOzfoC5r0u5ENq1_FYO-37" value="1" style="rounded=0;whiteSpace=wrap;html=1;" vertex="1" parent="1">
          <mxGeometry x="190" y="1200" width="70" height="60" as="geometry" />
        </mxCell>
        <mxCell id="fgOzfoC5r0u5ENq1_FYO-38" value="1" style="rounded=0;whiteSpace=wrap;html=1;" vertex="1" parent="1">
          <mxGeometry x="260" y="1200" width="70" height="60" as="geometry" />
        </mxCell>
        <mxCell id="fgOzfoC5r0u5ENq1_FYO-39" value="2" style="rounded=0;whiteSpace=wrap;html=1;fillColor=#FF3333;" vertex="1" parent="1">
          <mxGeometry x="330" y="1200" width="70" height="60" as="geometry" />
        </mxCell>
        <mxCell id="fgOzfoC5r0u5ENq1_FYO-40" value="1" style="rounded=0;whiteSpace=wrap;html=1;" vertex="1" parent="1">
          <mxGeometry x="400" y="1200" width="70" height="60" as="geometry" />
        </mxCell>
        <mxCell id="fgOzfoC5r0u5ENq1_FYO-41" value="" style="shape=crossbar;whiteSpace=wrap;html=1;rounded=1;" vertex="1" parent="1">
          <mxGeometry x="130" y="1290" width="260" height="20" as="geometry" />
        </mxCell>
        <mxCell id="fgOzfoC5r0u5ENq1_FYO-48" value="" style="verticalLabelPosition=bottom;verticalAlign=top;html=1;shape=mxgraph.basic.x;fillColor=#FF3333;" vertex="1" parent="1">
          <mxGeometry x="340" y="1320" width="50" height="40" as="geometry" />
        </mxCell>
        <mxCell id="fgOzfoC5r0u5ENq1_FYO-49" value="1" style="rounded=0;whiteSpace=wrap;html=1;" vertex="1" parent="1">
          <mxGeometry x="120" y="1440" width="70" height="60" as="geometry" />
        </mxCell>
        <mxCell id="fgOzfoC5r0u5ENq1_FYO-50" value="1" style="rounded=0;whiteSpace=wrap;html=1;" vertex="1" parent="1">
          <mxGeometry x="190" y="1440" width="70" height="60" as="geometry" />
        </mxCell>
        <mxCell id="fgOzfoC5r0u5ENq1_FYO-51" value="1" style="rounded=0;whiteSpace=wrap;html=1;" vertex="1" parent="1">
          <mxGeometry x="260" y="1440" width="70" height="60" as="geometry" />
        </mxCell>
        <mxCell id="fgOzfoC5r0u5ENq1_FYO-52" value="2" style="rounded=0;whiteSpace=wrap;html=1;fillColor=#FFFFFF;" vertex="1" parent="1">
          <mxGeometry x="330" y="1440" width="70" height="60" as="geometry" />
        </mxCell>
        <mxCell id="fgOzfoC5r0u5ENq1_FYO-53" value="1" style="rounded=0;whiteSpace=wrap;html=1;fillColor=#00FFFF;" vertex="1" parent="1">
          <mxGeometry x="400" y="1440" width="70" height="60" as="geometry" />
        </mxCell>
        <mxCell id="fgOzfoC5r0u5ENq1_FYO-54" value="" style="shape=crossbar;whiteSpace=wrap;html=1;rounded=1;" vertex="1" parent="1">
          <mxGeometry x="410" y="1530" width="50" height="20" as="geometry" />
        </mxCell>
        <mxCell id="fgOzfoC5r0u5ENq1_FYO-56" value="1" style="rounded=0;whiteSpace=wrap;html=1;fillColor=#66FF66;" vertex="1" parent="1">
          <mxGeometry x="400" y="1580" width="70" height="60" as="geometry" />
        </mxCell>
        <mxCell id="fgOzfoC5r0u5ENq1_FYO-57" value="&lt;font style=&quot;font-size: 14px;&quot;&gt;&lt;b&gt;Original Input&lt;/b&gt;&lt;/font&gt;" style="text;html=1;strokeColor=none;fillColor=none;align=center;verticalAlign=middle;whiteSpace=wrap;rounded=0;" vertex="1" parent="1">
          <mxGeometry x="30" y="55" width="60" height="30" as="geometry" />
        </mxCell>
        <mxCell id="fgOzfoC5r0u5ENq1_FYO-58" value="&lt;b&gt;&lt;font style=&quot;font-size: 14px;&quot;&gt;Original Input&lt;/font&gt;&lt;/b&gt;" style="text;html=1;strokeColor=none;fillColor=none;align=center;verticalAlign=middle;whiteSpace=wrap;rounded=0;" vertex="1" parent="1">
          <mxGeometry x="30" y="175" width="60" height="30" as="geometry" />
        </mxCell>
        <mxCell id="fgOzfoC5r0u5ENq1_FYO-59" value="&lt;b&gt;&lt;font style=&quot;font-size: 14px;&quot;&gt;Original Input&lt;/font&gt;&lt;/b&gt;" style="text;html=1;strokeColor=none;fillColor=none;align=center;verticalAlign=middle;whiteSpace=wrap;rounded=0;" vertex="1" parent="1">
          <mxGeometry x="40" y="435" width="60" height="30" as="geometry" />
        </mxCell>
        <mxCell id="fgOzfoC5r0u5ENq1_FYO-60" value="&lt;b&gt;&lt;font style=&quot;font-size: 14px;&quot;&gt;Original Input&lt;/font&gt;&lt;/b&gt;" style="text;html=1;strokeColor=none;fillColor=none;align=center;verticalAlign=middle;whiteSpace=wrap;rounded=0;" vertex="1" parent="1">
          <mxGeometry x="40" y="775" width="60" height="30" as="geometry" />
        </mxCell>
        <mxCell id="fgOzfoC5r0u5ENq1_FYO-61" value="&lt;b&gt;&lt;font style=&quot;font-size: 14px;&quot;&gt;Original Input&lt;/font&gt;&lt;/b&gt;" style="text;html=1;strokeColor=none;fillColor=none;align=center;verticalAlign=middle;whiteSpace=wrap;rounded=0;" vertex="1" parent="1">
          <mxGeometry x="40" y="1215" width="60" height="30" as="geometry" />
        </mxCell>
        <mxCell id="fgOzfoC5r0u5ENq1_FYO-62" value="&lt;b&gt;&lt;font style=&quot;font-size: 14px;&quot;&gt;Original Input&lt;/font&gt;&lt;/b&gt;" style="text;html=1;strokeColor=none;fillColor=none;align=center;verticalAlign=middle;whiteSpace=wrap;rounded=0;" vertex="1" parent="1">
          <mxGeometry x="40" y="1455" width="60" height="30" as="geometry" />
        </mxCell>
        <mxCell id="fgOzfoC5r0u5ENq1_FYO-63" value="&lt;font style=&quot;font-size: 14px;&quot;&gt;&lt;b&gt;Sliding window&lt;/b&gt;&lt;/font&gt;" style="text;html=1;strokeColor=none;fillColor=none;align=center;verticalAlign=middle;whiteSpace=wrap;rounded=0;" vertex="1" parent="1">
          <mxGeometry x="30" y="250" width="60" height="30" as="geometry" />
        </mxCell>
        <mxCell id="fgOzfoC5r0u5ENq1_FYO-64" value="&lt;b&gt;&lt;font style=&quot;font-size: 14px;&quot;&gt;Sliding window&lt;/font&gt;&lt;/b&gt;" style="text;html=1;strokeColor=none;fillColor=none;align=center;verticalAlign=middle;whiteSpace=wrap;rounded=0;" vertex="1" parent="1">
          <mxGeometry x="40" y="505" width="60" height="30" as="geometry" />
        </mxCell>
        <mxCell id="fgOzfoC5r0u5ENq1_FYO-65" value="&lt;b&gt;&lt;font style=&quot;font-size: 14px;&quot;&gt;Sliding window&lt;/font&gt;&lt;/b&gt;" style="text;html=1;strokeColor=none;fillColor=none;align=center;verticalAlign=middle;whiteSpace=wrap;rounded=0;" vertex="1" parent="1">
          <mxGeometry x="40" y="845" width="60" height="30" as="geometry" />
        </mxCell>
        <mxCell id="fgOzfoC5r0u5ENq1_FYO-66" value="&lt;b&gt;&lt;font style=&quot;font-size: 14px;&quot;&gt;Sliding window&lt;/font&gt;&lt;/b&gt;" style="text;html=1;strokeColor=none;fillColor=none;align=center;verticalAlign=middle;whiteSpace=wrap;rounded=0;" vertex="1" parent="1">
          <mxGeometry x="40" y="1285" width="60" height="30" as="geometry" />
        </mxCell>
        <mxCell id="fgOzfoC5r0u5ENq1_FYO-67" value="&lt;b&gt;&lt;font style=&quot;font-size: 14px;&quot;&gt;Sliding window&lt;/font&gt;&lt;/b&gt;" style="text;html=1;strokeColor=none;fillColor=none;align=center;verticalAlign=middle;whiteSpace=wrap;rounded=0;" vertex="1" parent="1">
          <mxGeometry x="335" y="1530" width="60" height="30" as="geometry" />
        </mxCell>
        <mxCell id="fgOzfoC5r0u5ENq1_FYO-68" value="&lt;b&gt;&lt;font style=&quot;font-size: 14px;&quot;&gt;Meet a out-of-bound value, &lt;br&gt;reset flag and force sliding window moves to right hand side&lt;/font&gt;&lt;/b&gt;" style="text;html=1;strokeColor=none;fillColor=none;align=left;verticalAlign=middle;whiteSpace=wrap;rounded=0;" vertex="1" parent="1">
          <mxGeometry x="414" y="1325" width="406" height="30" as="geometry" />
        </mxCell>
        <mxCell id="fgOzfoC5r0u5ENq1_FYO-69" value="&lt;b&gt;&lt;font style=&quot;font-size: 14px;&quot;&gt;Finally, we have 7 valid subarray with given value bound&lt;/font&gt;&lt;/b&gt;" style="text;html=1;strokeColor=none;fillColor=none;align=left;verticalAlign=middle;whiteSpace=wrap;rounded=0;" vertex="1" parent="1">
          <mxGeometry x="90" y="1690" width="410" height="30" as="geometry" />
        </mxCell>
        <mxCell id="fgOzfoC5r0u5ENq1_FYO-70" value="&lt;font style=&quot;font-size: 14px;&quot;&gt;&lt;b&gt;Original bound:&lt;br&gt;minK = 1&lt;br&gt;maxK = 1&lt;/b&gt;&lt;/font&gt;" style="text;html=1;strokeColor=none;fillColor=none;align=center;verticalAlign=middle;whiteSpace=wrap;rounded=0;" vertex="1" parent="1">
          <mxGeometry x="480" y="60" width="270" height="30" as="geometry" />
        </mxCell>
        <mxCell id="fgOzfoC5r0u5ENq1_FYO-71" value="" style="shape=curlyBracket;whiteSpace=wrap;html=1;rounded=1;flipH=1;fillColor=#66FF66;size=0.5;" vertex="1" parent="1">
          <mxGeometry x="232.5" y="300" width="20" height="40" as="geometry" />
        </mxCell>
        <mxCell id="fgOzfoC5r0u5ENq1_FYO-72" value="&lt;font style=&quot;font-size: 14px;&quot;&gt;&lt;b&gt;Valid subarray we have on this iteration&lt;/b&gt;&lt;/font&gt;" style="text;html=1;strokeColor=none;fillColor=none;align=center;verticalAlign=middle;whiteSpace=wrap;rounded=0;" vertex="1" parent="1">
          <mxGeometry x="260" y="305" width="280" height="30" as="geometry" />
        </mxCell>
        <mxCell id="fgOzfoC5r0u5ENq1_FYO-74" value="" style="shape=curlyBracket;whiteSpace=wrap;html=1;rounded=1;flipH=1;fillColor=#66FF66;size=0.5;" vertex="1" parent="1">
          <mxGeometry x="310" y="580" width="20" height="90" as="geometry" />
        </mxCell>
        <mxCell id="fgOzfoC5r0u5ENq1_FYO-76" value="" style="shape=curlyBracket;whiteSpace=wrap;html=1;rounded=1;flipH=1;fillColor=#66FF66;size=0.5;" vertex="1" parent="1">
          <mxGeometry x="360" y="920" width="20" height="190" as="geometry" />
        </mxCell>
        <mxCell id="fgOzfoC5r0u5ENq1_FYO-78" value="" style="shape=curlyBracket;whiteSpace=wrap;html=1;rounded=1;flipH=1;fillColor=#66FF66;size=0.5;" vertex="1" parent="1">
          <mxGeometry x="500" y="1590" width="20" height="40" as="geometry" />
        </mxCell>
        <mxCell id="fgOzfoC5r0u5ENq1_FYO-79" value="&lt;b&gt;&lt;font style=&quot;font-size: 14px;&quot;&gt;Valid subarray we have on this iteration&lt;/font&gt;&lt;/b&gt;" style="text;html=1;strokeColor=none;fillColor=none;align=center;verticalAlign=middle;whiteSpace=wrap;rounded=0;" vertex="1" parent="1">
          <mxGeometry x="527.5" y="1595" width="250" height="30" as="geometry" />
        </mxCell>
        <mxCell id="fgOzfoC5r0u5ENq1_FYO-80" value="&lt;font style=&quot;font-size: 14px;&quot;&gt;&lt;b&gt;Valid subarray we have on this iteration&lt;/b&gt;&lt;/font&gt;" style="text;html=1;strokeColor=none;fillColor=none;align=center;verticalAlign=middle;whiteSpace=wrap;rounded=0;" vertex="1" parent="1">
          <mxGeometry x="335" y="610" width="280" height="30" as="geometry" />
        </mxCell>
        <mxCell id="fgOzfoC5r0u5ENq1_FYO-81" value="&lt;font style=&quot;font-size: 14px;&quot;&gt;&lt;b&gt;Valid subarray we have on this iteration&lt;/b&gt;&lt;/font&gt;" style="text;html=1;strokeColor=none;fillColor=none;align=center;verticalAlign=middle;whiteSpace=wrap;rounded=0;" vertex="1" parent="1">
          <mxGeometry x="390" y="1000" width="280" height="30" as="geometry" />
        </mxCell>
      </root>
    </mxGraphModel>
  </diagram>
</mxfile>
